<?xml version="1.0" encoding="UTF-8" standalone="no"?>
<!-- Created with Inkscape (http://www.inkscape.org/) -->

<svg
   xmlns:dc="http://purl.org/dc/elements/1.1/"
   xmlns:cc="http://creativecommons.org/ns#"
   xmlns:rdf="http://www.w3.org/1999/02/22-rdf-syntax-ns#"
   xmlns:svg="http://www.w3.org/2000/svg"
   xmlns="http://www.w3.org/2000/svg"
   xmlns:sodipodi="http://sodipodi.sourceforge.net/DTD/sodipodi-0.dtd"
   xmlns:inkscape="http://www.inkscape.org/namespaces/inkscape"
   width="2in"
   height="0.34999999in"
   viewBox="0 0 50.800003 8.8900005"
   version="1.1"
   id="svg8"
   inkscape:version="0.92.3 (2405546, 2018-03-11)"
   sodipodi:docname="logo_attempt_obj.svg">
  <defs
     id="defs2" />
  <sodipodi:namedview
     id="base"
     pagecolor="#ffffff"
     bordercolor="#666666"
     borderopacity="1.0"
     inkscape:pageopacity="0.0"
     inkscape:pageshadow="2"
     inkscape:zoom="5.6"
     inkscape:cx="114.97996"
     inkscape:cy="25.824359"
     inkscape:document-units="mm"
     inkscape:current-layer="layer1"
     showgrid="false"
     units="in"
     inkscape:window-width="1920"
     inkscape:window-height="1057"
     inkscape:window-x="1912"
     inkscape:window-y="-8"
     inkscape:window-maximized="1" />
  <metadata
     id="metadata5">
    <rdf:RDF>
      <cc:Work
         rdf:about="">
        <dc:format>image/svg+xml</dc:format>
        <dc:type
           rdf:resource="http://purl.org/dc/dcmitype/StillImage" />
        <dc:title></dc:title>
      </cc:Work>
    </rdf:RDF>
  </metadata>
  <g
     inkscape:label="Layer 1"
     inkscape:groupmode="layer"
     id="layer1"
     transform="translate(0,-288.10995)">
    <g
       id="text817"
       style="font-style:normal;font-weight:normal;font-size:10.58333302px;line-height:1.25;font-family:sans-serif;letter-spacing:0px;word-spacing:0px;fill:#000000;fill-opacity:1;stroke:none;stroke-width:0.26458332"
       aria-label="TMH"
       transform="translate(-3.4962798,284.46488)">
      <path
         inkscape:connector-curvature="0"
         id="path829"
         style="font-style:normal;font-variant:normal;font-weight:normal;font-stretch:normal;font-size:10.58333302px;font-family:'Concert One';-inkscape-font-specification:'Concert One, Normal';font-variant-ligatures:normal;font-variant-caps:normal;font-variant-numeric:normal;font-feature-settings:normal;text-align:start;writing-mode:lr-tb;text-anchor:start;fill:none;stroke:#3f3f3f;stroke-width:0.26458332;stroke-opacity:1"
         d="m 7.7344038,4.6440667 q 0.2067057,0 0.4134115,0.015503 0.2118733,0.015503 0.3824055,0.08785 0.1705323,0.072347 0.2738851,0.2222086 0.1085205,0.144694 0.1085205,0.4082438 0,0.2583822 -0.1085205,0.4082438 -0.1033528,0.144694 -0.2738851,0.217041 -0.1705322,0.072347 -0.3824055,0.093018 -0.2067058,0.015503 -0.4134115,0.015503 H 7.2073042 v 4.5888671 q 0,0.222209 -0.015503,0.434082 -0.010335,0.211874 -0.082682,0.377238 -0.072347,0.165365 -0.2325439,0.268718 -0.160197,0.09818 -0.4547526,0.09818 -0.2945557,0 -0.4547526,-0.09818 Q 5.8068729,11.677229 5.7345259,11.511864 5.6621789,11.3465 5.646676,11.134626 5.6363407,10.922753 5.6363407,10.700544 V 6.1116773 H 5.1092411 q -0.2067057,0 -0.4185791,-0.015503 Q 4.4839563,6.0755038 4.3134241,6.0031568 4.1428919,5.9308098 4.0343714,5.7861158 3.9310185,5.6362542 3.9310185,5.377872 q 0,-0.2635498 0.1033529,-0.4082438 0.1085205,-0.1498616 0.2790527,-0.2222086 0.1705322,-0.072347 0.3772379,-0.08785 0.2118734,-0.015503 0.4185791,-0.015503 z" />
      <path
         inkscape:connector-curvature="0"
         id="path831"
         style="font-style:normal;font-variant:normal;font-weight:normal;font-stretch:normal;font-size:10.58333302px;font-family:'Concert One';-inkscape-font-specification:'Concert One, Normal';font-variant-ligatures:normal;font-variant-caps:normal;font-variant-numeric:normal;font-feature-settings:normal;text-align:start;writing-mode:lr-tb;text-anchor:start;fill:none;stroke:#3f3f3f;stroke-width:0.26458332;stroke-opacity:1"
         d="m 13.015735,10.204451 q -0.149861,0 -0.258382,-0.05684 Q 12.654,10.090763 12.576486,10.002913 12.498971,9.9150626 12.442127,9.8065421 12.39045,9.6980216 12.354277,9.5946688 L 11.372425,6.7628004 h -0.134359 v 4.3098146 q 0,0.165364 -0.02067,0.310058 -0.02067,0.144694 -0.09302,0.258382 -0.06718,0.108521 -0.206706,0.1757 -0.134359,0.06201 -0.37207,0.06201 -0.268718,0 -0.423747,-0.06201 -0.1550292,-0.06718 -0.2325439,-0.1757 -0.077515,-0.113688 -0.098185,-0.258382 -0.020671,-0.144694 -0.020671,-0.310058 V 5.8222893 q 0,-0.2222086 0.010335,-0.434082 0.015503,-0.2118734 0.08785,-0.3772379 0.072347,-0.1653646 0.2273759,-0.2635498 0.160197,-0.1033529 0.449585,-0.1033529 h 0.702799 q 0.175701,0 0.294556,0.015503 0.124023,0.010335 0.227376,0.08785 0.103353,0.072347 0.201538,0.2377116 0.103353,0.1653645 0.222209,0.4702555 0.124023,0.2997233 0.28422,0.7699788 0.160197,0.4650879 0.392741,1.1472168 L 13.0054,7.7859937 h 0.124023 l 0.165365,-0.5167643 q 0.211873,-0.651123 0.361735,-1.100708 0.149862,-0.4495849 0.26355,-0.7389729 0.113688,-0.2945557 0.201538,-0.449585 0.09302,-0.1601969 0.191203,-0.2325439 0.103352,-0.077515 0.222208,-0.08785 0.118856,-0.015503 0.289388,-0.015503 h 0.754476 q 0.289388,0 0.444417,0.1033529 0.160197,0.098185 0.232544,0.2635498 0.07235,0.1653645 0.08268,0.3772379 0.0155,0.2118734 0.0155,0.434082 v 5.2503258 q 0,0.165364 -0.02067,0.310058 -0.02067,0.144694 -0.09819,0.258382 -0.07752,0.108521 -0.232544,0.1757 -0.155029,0.06201 -0.423747,0.06201 -0.237711,0 -0.377238,-0.06201 -0.134359,-0.06718 -0.206706,-0.1757 -0.06718,-0.113688 -0.08785,-0.258382 -0.02067,-0.144694 -0.02067,-0.310058 V 6.7628004 h -0.144694 l -0.971517,2.8318684 q -0.04134,0.1033528 -0.09302,0.2118733 -0.05168,0.1085205 -0.129192,0.1963709 -0.07751,0.08785 -0.180867,0.144694 -0.103353,0.05684 -0.248047,0.05684 z" />
      <path
         inkscape:connector-curvature="0"
         id="path833"
         style="font-style:normal;font-variant:normal;font-weight:normal;font-stretch:normal;font-size:10.58333302px;font-family:'Concert One';-inkscape-font-specification:'Concert One, Normal';font-variant-ligatures:normal;font-variant-caps:normal;font-variant-numeric:normal;font-feature-settings:normal;text-align:start;writing-mode:lr-tb;text-anchor:start;fill:none;stroke:#3f3f3f;stroke-width:0.26458332;stroke-opacity:1"
         d="m 17.966337,5.8326246 q 0,-0.2222086 0.02067,-0.434082 0.02067,-0.2118734 0.09819,-0.3772379 0.08268,-0.1705323 0.237712,-0.2738851 0.155029,-0.1033529 0.428914,-0.1033529 0.268718,0 0.423747,0.1033529 0.160197,0.1033528 0.237712,0.2738851 0.08268,0.1653645 0.103352,0.3772379 0.02067,0.2118734 0.02067,0.434082 v 1.6226399 h 1.415934 V 5.8326246 q 0,-0.2222086 0.02067,-0.434082 0.02067,-0.2118734 0.09819,-0.3772379 0.08268,-0.1705323 0.237712,-0.2738851 0.155029,-0.1033529 0.428914,-0.1033529 0.268717,0 0.423747,0.1033529 0.160197,0.1033528 0.237711,0.2738851 0.08268,0.1653645 0.103353,0.3772379 0.02067,0.2118734 0.02067,0.434082 v 4.8575844 q 0,0.227376 -0.02067,0.43925 -0.02067,0.211873 -0.103353,0.382405 -0.07751,0.165365 -0.237711,0.268718 -0.15503,0.09818 -0.423747,0.09818 -0.273885,0 -0.428914,-0.09818 -0.15503,-0.103353 -0.237712,-0.268718 -0.07752,-0.170532 -0.09819,-0.382405 -0.02067,-0.211874 -0.02067,-0.43925 V 8.9745516 h -1.415934 v 1.7156574 q 0,0.227376 -0.02067,0.43925 -0.02067,0.211873 -0.103352,0.382405 -0.07751,0.165365 -0.237712,0.268718 -0.155029,0.09818 -0.423747,0.09818 -0.273885,0 -0.428914,-0.09818 -0.155029,-0.103353 -0.237712,-0.268718 -0.07751,-0.170532 -0.09819,-0.382405 -0.02067,-0.211874 -0.02067,-0.43925 z" />
    </g>
    <g
       id="text821"
       style="font-style:normal;font-weight:normal;font-size:10.58333302px;line-height:1.25;font-family:sans-serif;letter-spacing:0px;word-spacing:0px;opacity:1;fill:#333333;fill-opacity:1;stroke:#c2c2c2;stroke-width:0.26499999;stroke-miterlimit:4;stroke-dasharray:none;stroke-opacity:0.94709018;paint-order:stroke fill markers"
       aria-label="Tim Herron"
       transform="translate(-3.4962798,284.46488)">
      <path
         inkscape:connector-curvature="0"
         id="path836"
         style="font-style:normal;font-variant:normal;font-weight:normal;font-stretch:normal;font-size:5.64444447px;font-family:Mitr;-inkscape-font-specification:'Mitr, Normal';font-variant-ligatures:normal;font-variant-caps:normal;font-variant-numeric:normal;font-feature-settings:normal;text-align:start;writing-mode:lr-tb;text-anchor:start;fill:#333333;fill-opacity:1;stroke:#c2c2c2;stroke-width:0.26499999;stroke-miterlimit:4;stroke-dasharray:none;stroke-opacity:0.94709018;paint-order:stroke fill markers"
         d="m 24.826332,10.138195 q -0.112889,0 -0.163689,-0.0508 -0.0508,-0.0508 -0.0508,-0.1524 V 6.8531284 h -0.987778 q -0.112889,0 -0.158044,-0.045156 -0.03951,-0.045156 -0.03951,-0.1524 v -0.1524 q 0,-0.1072444 0.03951,-0.1524 0.04515,-0.0508 0.158044,-0.0508 h 2.698045 q 0.112889,0 0.158044,0.0508 0.04516,0.045156 0.04516,0.1524 v 0.1524 q 0,0.1072444 -0.04516,0.1524 -0.04515,0.045156 -0.158044,0.045156 H 25.334332 V 9.934995 q 0,0.1016 -0.0508,0.1524 -0.04516,0.0508 -0.163689,0.0508 z" />
      <path
         inkscape:connector-curvature="0"
         id="path838"
         style="font-style:normal;font-variant:normal;font-weight:normal;font-stretch:normal;font-size:5.64444447px;font-family:Mitr;-inkscape-font-specification:'Mitr, Normal';font-variant-ligatures:normal;font-variant-caps:normal;font-variant-numeric:normal;font-feature-settings:normal;text-align:start;writing-mode:lr-tb;text-anchor:start;fill:#333333;fill-opacity:1;stroke:#c2c2c2;stroke-width:0.26499999;stroke-miterlimit:4;stroke-dasharray:none;stroke-opacity:0.94709018;paint-order:stroke fill markers"
         d="m 27.10951,6.9603728 q -0.135467,0 -0.208845,-0.079022 -0.07338,-0.079022 -0.07338,-0.1919111 V 6.5709061 q 0,-0.1128889 0.07338,-0.1919111 0.07338,-0.079022 0.208845,-0.079022 h 0.242711 q 0.135467,0 0.208844,0.079022 0.07902,0.079022 0.07902,0.1919111 v 0.1185334 q 0,0.1128889 -0.07902,0.1919111 -0.07338,0.079022 -0.208844,0.079022 z m -0.02258,3.1778222 q -0.112889,0 -0.163689,-0.0508 -0.0508,-0.0508 -0.0508,-0.1524 V 7.6377061 q 0,-0.1072444 0.0508,-0.1580444 0.0508,-0.0508 0.163689,-0.0508 h 0.293511 q 0.112889,0 0.163689,0.0508 0.0508,0.0508 0.0508,0.1580444 V 9.934995 q 0,0.1016 -0.0508,0.1524 -0.04516,0.0508 -0.163689,0.0508 z" />
      <path
         inkscape:connector-curvature="0"
         id="path840"
         style="font-style:normal;font-variant:normal;font-weight:normal;font-stretch:normal;font-size:5.64444447px;font-family:Mitr;-inkscape-font-specification:'Mitr, Normal';font-variant-ligatures:normal;font-variant-caps:normal;font-variant-numeric:normal;font-feature-settings:normal;text-align:start;writing-mode:lr-tb;text-anchor:start;fill:#333333;fill-opacity:1;stroke:#c2c2c2;stroke-width:0.26499999;stroke-miterlimit:4;stroke-dasharray:none;stroke-opacity:0.94709018;paint-order:stroke fill markers"
         d="m 28.519033,10.138195 q -0.112888,0 -0.163688,-0.0508 -0.0508,-0.0508 -0.0508,-0.1524 V 7.5812617 q 0,-0.084667 0.02822,-0.1185333 0.02822,-0.033867 0.118533,-0.033867 h 0.299156 q 0.06209,0 0.09031,0.028222 0.02822,0.022578 0.03387,0.084667 l 0.01693,0.2370667 Q 29.055256,7.5699728 29.2641,7.4570839 29.478589,7.344195 29.7721,7.344195 q 0.248356,0 0.428978,0.1128889 0.186267,0.1072445 0.270933,0.3217334 0.310445,-0.4346223 0.897467,-0.4346223 0.400755,0 0.632178,0.2427111 0.237066,0.2427112 0.237066,0.7224889 v 1.6256 q 0,0.1016 -0.0508,0.1524 -0.04516,0.0508 -0.163689,0.0508 h -0.248355 q -0.112889,0 -0.163689,-0.0508 -0.0508,-0.0508 -0.0508,-0.1524 V 8.3489061 q 0,-0.2596444 -0.112889,-0.3725333 -0.107244,-0.1128889 -0.327378,-0.1128889 -0.231422,0 -0.378177,0.1524 -0.141112,0.1524 -0.141112,0.4120445 V 9.934995 q 0,0.1016 -0.0508,0.1524 -0.0508,0.0508 -0.163688,0.0508 h -0.231423 q -0.112889,0 -0.163689,-0.0508 -0.0508,-0.0508 -0.0508,-0.1524 V 8.3206839 q 0,-0.2370666 -0.1016,-0.3443111 -0.09596,-0.1128889 -0.310444,-0.1128889 -0.242711,0 -0.395111,0.1636889 -0.1524,0.1580445 -0.1524,0.4176889 V 9.934995 q 0,0.1016 -0.0508,0.1524 -0.04516,0.0508 -0.163689,0.0508 z" />
      <path
         inkscape:connector-curvature="0"
         id="path842"
         style="font-style:normal;font-variant:normal;font-weight:normal;font-stretch:normal;font-size:5.64444447px;font-family:Mitr;-inkscape-font-specification:'Mitr, Normal';font-variant-ligatures:normal;font-variant-caps:normal;font-variant-numeric:normal;font-feature-settings:normal;text-align:start;writing-mode:lr-tb;text-anchor:start;fill:#333333;fill-opacity:1;stroke:#c2c2c2;stroke-width:0.26499999;stroke-miterlimit:4;stroke-dasharray:none;stroke-opacity:0.94709018;paint-order:stroke fill markers"
         d="m 35.293336,10.138195 q -0.112889,0 -0.163689,-0.0508 -0.04516,-0.0508 -0.04516,-0.1524 V 6.5088172 q 0,-0.1072444 0.04516,-0.1580444 0.0508,-0.0508 0.163689,-0.0508 h 0.299156 q 0.112889,0 0.163689,0.0508 0.0508,0.0508 0.0508,0.1580444 v 1.4224001 h 1.851378 V 6.5088172 q 0,-0.1072444 0.0508,-0.1580444 0.0508,-0.0508 0.163688,-0.0508 h 0.293512 q 0.112888,0 0.163688,0.0508 0.0508,0.0508 0.0508,0.1580444 V 9.934995 q 0,0.1016 -0.0508,0.1524 -0.04516,0.0508 -0.163688,0.0508 h -0.293512 q -0.112888,0 -0.163688,-0.0508 -0.0508,-0.0508 -0.0508,-0.1524 V 8.4787284 H 35.806981 V 9.934995 q 0,0.1016 -0.0508,0.1524 -0.04516,0.0508 -0.163689,0.0508 z" />
      <path
         inkscape:connector-curvature="0"
         id="path844"
         style="font-style:normal;font-variant:normal;font-weight:normal;font-stretch:normal;font-size:5.64444447px;font-family:Mitr;-inkscape-font-specification:'Mitr, Normal';font-variant-ligatures:normal;font-variant-caps:normal;font-variant-numeric:normal;font-feature-settings:normal;text-align:start;writing-mode:lr-tb;text-anchor:start;fill:#333333;fill-opacity:1;stroke:#c2c2c2;stroke-width:0.26499999;stroke-miterlimit:4;stroke-dasharray:none;stroke-opacity:0.94709018;paint-order:stroke fill markers"
         d="m 40.504129,10.222862 q -0.440266,0 -0.795866,-0.146756 -0.3556,-0.1523999 -0.570089,-0.4628443 -0.208845,-0.3160889 -0.208845,-0.7845778 0,-0.7281333 0.389467,-1.1063111 0.389467,-0.3781778 1.106311,-0.3781778 0.7112,0 1.072445,0.3668889 0.366889,0.3668889 0.366889,1.0611556 0,0.1975555 -0.180623,0.1975555 h -2.071511 q 0,0.3725334 0.259645,0.5757334 0.259644,0.1975555 0.722489,0.1975555 0.445911,0 0.801511,-0.2032 0.03951,-0.022578 0.06209,-0.022578 0.03951,0 0.06209,0.0508 l 0.135467,0.2427112 q 0.01693,0.033867 0.01693,0.062089 0,0.039511 -0.0508,0.073378 -0.231422,0.1411109 -0.502355,0.2088439 -0.265289,0.06773 -0.615245,0.06773 z m 0.705556,-1.6707559 q 0,-0.3499555 -0.197556,-0.5475111 -0.191911,-0.1975555 -0.581377,-0.1975555 -0.395111,0 -0.6096,0.2032 -0.208845,0.2032 -0.208845,0.5418666 z" />
      <path
         inkscape:connector-curvature="0"
         id="path846"
         style="font-style:normal;font-variant:normal;font-weight:normal;font-stretch:normal;font-size:5.64444447px;font-family:Mitr;-inkscape-font-specification:'Mitr, Normal';font-variant-ligatures:normal;font-variant-caps:normal;font-variant-numeric:normal;font-feature-settings:normal;text-align:start;writing-mode:lr-tb;text-anchor:start;fill:#333333;fill-opacity:1;stroke:#c2c2c2;stroke-width:0.26499999;stroke-miterlimit:4;stroke-dasharray:none;stroke-opacity:0.94709018;paint-order:stroke fill markers"
         d="m 42.630145,10.138195 q -0.112889,0 -0.163689,-0.0508 -0.0508,-0.0508 -0.0508,-0.1524 V 7.5812617 q 0,-0.084667 0.02822,-0.1185333 0.02822,-0.033867 0.118534,-0.033867 h 0.321733 q 0.06209,0 0.09031,0.028222 0.02822,0.022578 0.03387,0.084667 l 0.01693,0.2032 q 0.333022,-0.4007556 0.874889,-0.4007556 0.248356,0 0.378178,0.084667 0.03387,0.022578 0.03951,0.0508 0.01129,0.022578 0,0.056444 l -0.1016,0.3386667 q -0.01693,0.056445 -0.06209,0.056445 l -0.04516,-0.011289 q -0.135467,-0.062089 -0.310445,-0.062089 -0.287867,0 -0.474133,0.1636889 -0.186267,0.1580444 -0.186267,0.4346222 V 9.934995 q 0,0.1016 -0.0508,0.1524 -0.04516,0.0508 -0.163689,0.0508 z" />
      <path
         inkscape:connector-curvature="0"
         id="path848"
         style="font-style:normal;font-variant:normal;font-weight:normal;font-stretch:normal;font-size:5.64444447px;font-family:Mitr;-inkscape-font-specification:'Mitr, Normal';font-variant-ligatures:normal;font-variant-caps:normal;font-variant-numeric:normal;font-feature-settings:normal;text-align:start;writing-mode:lr-tb;text-anchor:start;fill:#333333;fill-opacity:1;stroke:#c2c2c2;stroke-width:0.26499999;stroke-miterlimit:4;stroke-dasharray:none;stroke-opacity:0.94709018;paint-order:stroke fill markers"
         d="m 44.978322,10.138195 q -0.112889,0 -0.163689,-0.0508 -0.0508,-0.0508 -0.0508,-0.1524 V 7.5812617 q 0,-0.084667 0.02822,-0.1185333 0.02822,-0.033867 0.118534,-0.033867 h 0.321733 q 0.06209,0 0.09031,0.028222 0.02822,0.022578 0.03387,0.084667 l 0.01693,0.2032 q 0.333022,-0.4007556 0.874889,-0.4007556 0.248356,0 0.378178,0.084667 0.03387,0.022578 0.03951,0.0508 0.01129,0.022578 0,0.056444 l -0.1016,0.3386667 q -0.01693,0.056445 -0.06209,0.056445 l -0.04516,-0.011289 q -0.135466,-0.062089 -0.310444,-0.062089 -0.287867,0 -0.474133,0.1636889 -0.186267,0.1580444 -0.186267,0.4346222 V 9.934995 q 0,0.1016 -0.0508,0.1524 -0.04516,0.0508 -0.163689,0.0508 z" />
      <path
         inkscape:connector-curvature="0"
         id="path850"
         style="font-style:normal;font-variant:normal;font-weight:normal;font-stretch:normal;font-size:5.64444447px;font-family:Mitr;-inkscape-font-specification:'Mitr, Normal';font-variant-ligatures:normal;font-variant-caps:normal;font-variant-numeric:normal;font-feature-settings:normal;text-align:start;writing-mode:lr-tb;text-anchor:start;fill:#333333;fill-opacity:1;stroke:#c2c2c2;stroke-width:0.26499999;stroke-miterlimit:4;stroke-dasharray:none;stroke-opacity:0.94709018;paint-order:stroke fill markers"
         d="m 48.528766,10.222862 q -0.733778,0 -1.134534,-0.3838225 -0.395111,-0.3894667 -0.395111,-1.0555111 0,-0.6660445 0.395111,-1.0498667 0.400756,-0.3894667 1.134534,-0.3894667 0.733777,0 1.134533,0.3894667 0.400756,0.3838222 0.400756,1.0498667 0,0.6660444 -0.400756,1.0555111 -0.400756,0.3838225 -1.134533,0.3838225 z m 0,-0.5305781 q 0.400755,0 0.6096,-0.2314222 0.208844,-0.2314222 0.208844,-0.6773333 0,-0.4402667 -0.208844,-0.6660445 -0.208845,-0.2314222 -0.6096,-0.2314222 -0.395111,0 -0.6096,0.2314222 -0.208845,0.2257778 -0.208845,0.6660445 0,0.4402666 0.208845,0.6773333 0.214489,0.2314222 0.6096,0.2314222 z" />
      <path
         inkscape:connector-curvature="0"
         id="path852"
         style="font-style:normal;font-variant:normal;font-weight:normal;font-stretch:normal;font-size:5.64444447px;font-family:Mitr;-inkscape-font-specification:'Mitr, Normal';font-variant-ligatures:normal;font-variant-caps:normal;font-variant-numeric:normal;font-feature-settings:normal;text-align:start;writing-mode:lr-tb;text-anchor:start;fill:#333333;fill-opacity:1;stroke:#c2c2c2;stroke-width:0.26499999;stroke-miterlimit:4;stroke-dasharray:none;stroke-opacity:0.94709018;paint-order:stroke fill markers"
         d="m 50.832229,10.138195 q -0.112889,0 -0.163689,-0.0508 -0.0508,-0.0508 -0.0508,-0.1524 V 7.5812617 q 0,-0.084667 0.02822,-0.1185333 0.02822,-0.033867 0.118533,-0.033867 h 0.321734 q 0.124177,0 0.129822,0.1128889 l 0.01129,0.2257778 q 0.383822,-0.4233334 1.100666,-0.4233334 0.4572,0 0.733778,0.2483556 0.282222,0.2427111 0.282222,0.7337778 V 9.934995 q 0,0.1016 -0.0508,0.1524 -0.04516,0.0508 -0.158044,0.0508 h -0.299156 q -0.112888,0 -0.163688,-0.0508 -0.0508,-0.0508 -0.0508,-0.1524 V 8.3714839 q 0,-0.2765778 -0.129823,-0.3894666 -0.124177,-0.1185334 -0.4064,-0.1185334 -0.299155,0 -0.524933,0.1636889 -0.220133,0.1580445 -0.220133,0.4120445 V 9.934995 q 0,0.1016 -0.0508,0.1524 -0.04516,0.0508 -0.163689,0.0508 z" />
    </g>
  </g>
</svg>
