<svg width="20" height="17" viewBox="0 0 20 17" fill="none" xmlns="http://www.w3.org/2000/svg">
<path d="M0 12.321C0 14.6267 1.72927 16.356 4.03496 16.356C6.34065 16.356 8.06992 14.6267 8.06992 12.321C8.06992 10.5197 7.06118 9.07866 5.47602 8.50224L8.64634 0H5.54807L1.08079 9.07866C0.432317 10.4477 0 11.3123 0 12.321ZM11.3123 12.321C11.3123 14.6267 13.0416 16.356 15.3473 16.356C17.6529 16.356 19.3822 14.6267 19.3822 12.321C19.3822 10.5197 18.3014 9.07866 16.7883 8.50224L19.8866 0H16.8604L12.3931 9.07866C11.6726 10.4477 11.3123 11.3123 11.3123 12.321Z" fill="#F5AF22"/>
</svg>
